<svg width="1440" height="1001" viewBox="0 0 1440 1001" fill="none" xmlns="http://www.w3.org/2000/svg">
<rect x="-0.286133" width="1440" height="1000" fill="#1565D8"/>
<mask id="mask0" mask-type="alpha" maskUnits="userSpaceOnUse" x="-1" y="0" width="1441" height="1000">
<rect x="-0.286133" width="1440" height="1000" fill="white"/>
</mask>
<g mask="url(#mask0)">
<path opacity="0.15" fill-rule="evenodd" clip-rule="evenodd" d="M-163 492C164.505 492 430 226.505 430 -101C430 -428.505 164.505 -694 -163 -694C-490.505 -694 -756 -428.505 -756 -101C-756 226.505 -490.505 492 -163 492ZM-163 292C-380.048 292 -556 116.048 -556 -101C-556 -318.048 -380.048 -494 -163 -494C54.0479 -494 230 -318.048 230 -101C230 116.048 54.0479 292 -163 292Z" fill="url(#paint0_linear)"/>
<path opacity="0.15" fill-rule="evenodd" clip-rule="evenodd" d="M1615 1240C1942.5 1240 2208 974.505 2208 647C2208 319.495 1942.5 54 1615 54C1287.5 54 1022 319.495 1022 647C1022 974.505 1287.5 1240 1615 1240ZM1615 1040C1397.95 1040 1222 864.048 1222 647C1222 429.952 1397.95 254 1615 254C1832.05 254 2008 429.952 2008 647C2008 864.048 1832.05 1040 1615 1040Z" fill="url(#paint1_linear)"/>
<path opacity="0.08" fill-rule="evenodd" clip-rule="evenodd" d="M421.981 550.408C426.651 547.711 432.405 547.711 437.076 550.408L487.342 579.429C492.012 582.125 494.889 587.108 494.889 592.501V650.543C494.889 655.936 492.012 660.919 487.342 663.615L437.076 692.636C432.405 695.333 426.651 695.333 421.981 692.636L371.715 663.615C367.045 660.919 364.168 655.936 364.168 650.543V592.501C364.168 587.108 367.045 582.125 371.715 579.429L421.981 550.408Z" fill="white"/>
<g opacity="0.2">
<mask id="mask1" mask-type="alpha" maskUnits="userSpaceOnUse" x="355" y="540" width="131" height="147">
<path fill-rule="evenodd" clip-rule="evenodd" d="M412.925 542.357C417.595 539.661 423.349 539.661 428.019 542.357L478.285 571.378C482.955 574.075 485.832 579.058 485.832 584.451V642.493C485.832 647.886 482.955 652.869 478.285 655.565L428.019 684.586C423.349 687.282 417.595 687.282 412.925 684.586L362.658 655.565C357.988 652.869 355.111 647.886 355.111 642.493V584.451C355.111 579.058 357.988 574.075 362.658 571.378L412.925 542.357Z" fill="white"/>
</mask>
<g mask="url(#mask1)">
<path fill-rule="evenodd" clip-rule="evenodd" d="M445.277 488.273L588.122 794.604L589.382 794.017L446.537 487.686L445.277 488.273ZM581.173 794.604L438.328 488.273L439.588 487.686L582.432 794.017L581.173 794.604ZM431.379 488.273L574.223 794.604L575.483 794.017L432.638 487.686L431.379 488.273ZM567.274 794.604L424.429 488.273L425.689 487.686L568.533 794.017L567.274 794.604ZM417.48 488.273L560.324 794.604L561.584 794.017L418.739 487.686L417.48 488.273ZM553.375 794.604L410.53 488.273L411.79 487.686L554.634 794.017L553.375 794.604ZM403.581 488.273L546.425 794.604L547.685 794.017L404.84 487.686L403.581 488.273ZM539.476 794.604L396.631 488.273L397.891 487.686L540.735 794.017L539.476 794.604ZM389.682 488.273L532.526 794.604L533.786 794.017L390.941 487.686L389.682 488.273ZM525.577 794.604L382.732 488.273L383.992 487.686L526.837 794.017L525.577 794.604ZM375.783 488.273L518.627 794.604L519.887 794.017L377.042 487.686L375.783 488.273ZM511.678 794.604L368.833 488.273L370.093 487.686L512.938 794.017L511.678 794.604ZM361.884 488.273L504.728 794.604L505.988 794.017L363.143 487.686L361.884 488.273ZM497.779 794.604L354.934 488.273L356.194 487.686L499.039 794.017L497.779 794.604ZM347.985 488.273L490.829 794.604L492.089 794.017L349.244 487.686L347.985 488.273ZM483.88 794.604L341.035 488.273L342.295 487.686L485.14 794.017L483.88 794.604ZM334.086 488.273L476.931 794.604L478.19 794.017L335.345 487.686L334.086 488.273ZM469.981 794.604L327.136 488.273L328.396 487.686L471.241 794.017L469.981 794.604ZM320.187 488.273L463.032 794.604L464.291 794.017L321.447 487.686L320.187 488.273ZM456.082 794.604L313.237 488.273L314.497 487.686L457.342 794.017L456.082 794.604ZM306.288 488.273L449.133 794.604L450.392 794.017L307.548 487.686L306.288 488.273ZM442.183 794.604L299.338 488.273L300.598 487.686L443.443 794.017L442.183 794.604ZM292.389 488.273L435.234 794.604L436.493 794.017L293.649 487.686L292.389 488.273ZM428.284 794.604L285.439 488.273L286.699 487.686L429.544 794.017L428.284 794.604ZM278.49 488.273L421.335 794.604L422.594 794.017L279.75 487.686L278.49 488.273ZM271.54 488.273L414.385 794.604L415.645 794.017L272.8 487.686L271.54 488.273Z" fill="white"/>
</g>
</g>
<path opacity="0.1" fill-rule="evenodd" clip-rule="evenodd" d="M1055 564C1055 565.657 1053.66 567 1052 567C1050.34 567 1049 565.657 1049 564C1049 562.343 1050.34 561 1052 561C1053.66 561 1055 562.343 1055 564ZM1052 583C1053.66 583 1055 581.657 1055 580C1055 578.343 1053.66 577 1052 577C1050.34 577 1049 578.343 1049 580C1049 581.657 1050.34 583 1052 583ZM1055 596C1055 597.657 1053.66 599 1052 599C1050.34 599 1049 597.657 1049 596C1049 594.343 1050.34 593 1052 593C1053.66 593 1055 594.343 1055 596ZM1052 615C1053.66 615 1055 613.657 1055 612C1055 610.343 1053.66 609 1052 609C1050.34 609 1049 610.343 1049 612C1049 613.657 1050.34 615 1052 615ZM1055 628C1055 629.657 1053.66 631 1052 631C1050.34 631 1049 629.657 1049 628C1049 626.343 1050.34 625 1052 625C1053.66 625 1055 626.343 1055 628ZM1052 647C1053.66 647 1055 645.657 1055 644C1055 642.343 1053.66 641 1052 641C1050.34 641 1049 642.343 1049 644C1049 645.657 1050.34 647 1052 647ZM1055 660C1055 661.657 1053.66 663 1052 663C1050.34 663 1049 661.657 1049 660C1049 658.343 1050.34 657 1052 657C1053.66 657 1055 658.343 1055 660ZM956 679C957.657 679 959 677.657 959 676C959 674.343 957.657 673 956 673C954.343 673 953 674.343 953 676C953 677.657 954.343 679 956 679ZM975 676C975 677.657 973.657 679 972 679C970.343 679 969 677.657 969 676C969 674.343 970.343 673 972 673C973.657 673 975 674.343 975 676ZM988 679C989.657 679 991 677.657 991 676C991 674.343 989.657 673 988 673C986.343 673 985 674.343 985 676C985 677.657 986.343 679 988 679ZM1007 676C1007 677.657 1005.66 679 1004 679C1002.34 679 1001 677.657 1001 676C1001 674.343 1002.34 673 1004 673C1005.66 673 1007 674.343 1007 676ZM1020 679C1021.66 679 1023 677.657 1023 676C1023 674.343 1021.66 673 1020 673C1018.34 673 1017 674.343 1017 676C1017 677.657 1018.34 679 1020 679ZM1039 676C1039 677.657 1037.66 679 1036 679C1034.34 679 1033 677.657 1033 676C1033 674.343 1034.34 673 1036 673C1037.66 673 1039 674.343 1039 676ZM1055 676C1055 677.657 1053.66 679 1052 679C1050.34 679 1049 677.657 1049 676C1049 674.343 1050.34 673 1052 673C1053.66 673 1055 674.343 1055 676ZM1036 663C1037.66 663 1039 661.657 1039 660C1039 658.343 1037.66 657 1036 657C1034.34 657 1033 658.343 1033 660C1033 661.657 1034.34 663 1036 663ZM1023 660C1023 661.657 1021.66 663 1020 663C1018.34 663 1017 661.657 1017 660C1017 658.343 1018.34 657 1020 657C1021.66 657 1023 658.343 1023 660ZM1004 663C1005.66 663 1007 661.657 1007 660C1007 658.343 1005.66 657 1004 657C1002.34 657 1001 658.343 1001 660C1001 661.657 1002.34 663 1004 663ZM991 660C991 661.657 989.657 663 988 663C986.343 663 985 661.657 985 660C985 658.343 986.343 657 988 657C989.657 657 991 658.343 991 660ZM972 663C973.657 663 975 661.657 975 660C975 658.343 973.657 657 972 657C970.343 657 969 658.343 969 660C969 661.657 970.343 663 972 663ZM959 660C959 661.657 957.657 663 956 663C954.343 663 953 661.657 953 660C953 658.343 954.343 657 956 657C957.657 657 959 658.343 959 660ZM1039 644C1039 645.657 1037.66 647 1036 647C1034.34 647 1033 645.657 1033 644C1033 642.343 1034.34 641 1036 641C1037.66 641 1039 642.343 1039 644ZM1020 647C1021.66 647 1023 645.657 1023 644C1023 642.343 1021.66 641 1020 641C1018.34 641 1017 642.343 1017 644C1017 645.657 1018.34 647 1020 647ZM1007 644C1007 645.657 1005.66 647 1004 647C1002.34 647 1001 645.657 1001 644C1001 642.343 1002.34 641 1004 641C1005.66 641 1007 642.343 1007 644ZM988 647C989.657 647 991 645.657 991 644C991 642.343 989.657 641 988 641C986.343 641 985 642.343 985 644C985 645.657 986.343 647 988 647ZM975 644C975 645.657 973.657 647 972 647C970.343 647 969 645.657 969 644C969 642.343 970.343 641 972 641C973.657 641 975 642.343 975 644ZM956 647C957.657 647 959 645.657 959 644C959 642.343 957.657 641 956 641C954.343 641 953 642.343 953 644C953 645.657 954.343 647 956 647ZM1036 631C1037.66 631 1039 629.657 1039 628C1039 626.343 1037.66 625 1036 625C1034.34 625 1033 626.343 1033 628C1033 629.657 1034.34 631 1036 631ZM1023 628C1023 629.657 1021.66 631 1020 631C1018.34 631 1017 629.657 1017 628C1017 626.343 1018.34 625 1020 625C1021.66 625 1023 626.343 1023 628ZM1004 631C1005.66 631 1007 629.657 1007 628C1007 626.343 1005.66 625 1004 625C1002.34 625 1001 626.343 1001 628C1001 629.657 1002.34 631 1004 631ZM991 628C991 629.657 989.657 631 988 631C986.343 631 985 629.657 985 628C985 626.343 986.343 625 988 625C989.657 625 991 626.343 991 628ZM972 631C973.657 631 975 629.657 975 628C975 626.343 973.657 625 972 625C970.343 625 969 626.343 969 628C969 629.657 970.343 631 972 631ZM959 628C959 629.657 957.657 631 956 631C954.343 631 953 629.657 953 628C953 626.343 954.343 625 956 625C957.657 625 959 626.343 959 628ZM1039 612C1039 613.657 1037.66 615 1036 615C1034.34 615 1033 613.657 1033 612C1033 610.343 1034.34 609 1036 609C1037.66 609 1039 610.343 1039 612ZM1020 615C1021.66 615 1023 613.657 1023 612C1023 610.343 1021.66 609 1020 609C1018.34 609 1017 610.343 1017 612C1017 613.657 1018.34 615 1020 615ZM1007 612C1007 613.657 1005.66 615 1004 615C1002.34 615 1001 613.657 1001 612C1001 610.343 1002.34 609 1004 609C1005.66 609 1007 610.343 1007 612ZM988 615C989.657 615 991 613.657 991 612C991 610.343 989.657 609 988 609C986.343 609 985 610.343 985 612C985 613.657 986.343 615 988 615ZM975 612C975 613.657 973.657 615 972 615C970.343 615 969 613.657 969 612C969 610.343 970.343 609 972 609C973.657 609 975 610.343 975 612ZM956 615C957.657 615 959 613.657 959 612C959 610.343 957.657 609 956 609C954.343 609 953 610.343 953 612C953 613.657 954.343 615 956 615ZM1036 599C1037.66 599 1039 597.657 1039 596C1039 594.343 1037.66 593 1036 593C1034.34 593 1033 594.343 1033 596C1033 597.657 1034.34 599 1036 599ZM1023 596C1023 597.657 1021.66 599 1020 599C1018.34 599 1017 597.657 1017 596C1017 594.343 1018.34 593 1020 593C1021.66 593 1023 594.343 1023 596ZM1004 599C1005.66 599 1007 597.657 1007 596C1007 594.343 1005.66 593 1004 593C1002.34 593 1001 594.343 1001 596C1001 597.657 1002.34 599 1004 599ZM991 596C991 597.657 989.657 599 988 599C986.343 599 985 597.657 985 596C985 594.343 986.343 593 988 593C989.657 593 991 594.343 991 596ZM972 599C973.657 599 975 597.657 975 596C975 594.343 973.657 593 972 593C970.343 593 969 594.343 969 596C969 597.657 970.343 599 972 599ZM959 596C959 597.657 957.657 599 956 599C954.343 599 953 597.657 953 596C953 594.343 954.343 593 956 593C957.657 593 959 594.343 959 596ZM1039 580C1039 581.657 1037.66 583 1036 583C1034.34 583 1033 581.657 1033 580C1033 578.343 1034.34 577 1036 577C1037.66 577 1039 578.343 1039 580ZM1020 583C1021.66 583 1023 581.657 1023 580C1023 578.343 1021.66 577 1020 577C1018.34 577 1017 578.343 1017 580C1017 581.657 1018.34 583 1020 583ZM1007 580C1007 581.657 1005.66 583 1004 583C1002.34 583 1001 581.657 1001 580C1001 578.343 1002.34 577 1004 577C1005.66 577 1007 578.343 1007 580ZM988 583C989.657 583 991 581.657 991 580C991 578.343 989.657 577 988 577C986.343 577 985 578.343 985 580C985 581.657 986.343 583 988 583ZM975 580C975 581.657 973.657 583 972 583C970.343 583 969 581.657 969 580C969 578.343 970.343 577 972 577C973.657 577 975 578.343 975 580ZM956 583C957.657 583 959 581.657 959 580C959 578.343 957.657 577 956 577C954.343 577 953 578.343 953 580C953 581.657 954.343 583 956 583ZM1036 567C1037.66 567 1039 565.657 1039 564C1039 562.343 1037.66 561 1036 561C1034.34 561 1033 562.343 1033 564C1033 565.657 1034.34 567 1036 567ZM1023 564C1023 565.657 1021.66 567 1020 567C1018.34 567 1017 565.657 1017 564C1017 562.343 1018.34 561 1020 561C1021.66 561 1023 562.343 1023 564ZM1004 567C1005.66 567 1007 565.657 1007 564C1007 562.343 1005.66 561 1004 561C1002.34 561 1001 562.343 1001 564C1001 565.657 1002.34 567 1004 567ZM991 564C991 565.657 989.657 567 988 567C986.343 567 985 565.657 985 564C985 562.343 986.343 561 988 561C989.657 561 991 562.343 991 564ZM972 567C973.657 567 975 565.657 975 564C975 562.343 973.657 561 972 561C970.343 561 969 562.343 969 564C969 565.657 970.343 567 972 567ZM959 564C959 565.657 957.657 567 956 567C954.343 567 953 565.657 953 564C953 562.343 954.343 561 956 561C957.657 561 959 562.343 959 564Z" fill="white"/>
</g>
<path fill-rule="evenodd" clip-rule="evenodd" d="M1440 1001H0V826C240 879.333 480 906 720 906C960 906 1200 879.333 1440 826V1001Z" fill="white"/>
<defs>
<linearGradient id="paint0_linear" x1="430" y1="-692.419" x2="-752.838" y2="-692.419" gradientUnits="userSpaceOnUse">
<stop stop-color="white" stop-opacity="0.01"/>
<stop offset="1" stop-color="white"/>
</linearGradient>
<linearGradient id="paint1_linear" x1="2208" y1="55.5808" x2="1025.16" y2="55.5808" gradientUnits="userSpaceOnUse">
<stop stop-color="white"/>
<stop offset="1" stop-color="white" stop-opacity="0.01"/>
</linearGradient>
</defs>
</svg>
