<svg width="49" height="49" viewBox="0 0 49 49" fill="none" xmlns="http://www.w3.org/2000/svg">
<g opacity="0.2">
<rect width="48" height="48" rx="16" stroke="#1565D8"/>
</g>
<path fill-rule="evenodd" clip-rule="evenodd" d="M13.9202 12.24H27.3602C28.2881 12.24 29.0402 12.9922 29.0402 13.92V27.36C29.0402 28.2878 28.2881 29.04 27.3602 29.04H13.9202C12.9924 29.04 12.2402 28.2878 12.2402 27.36V13.92C12.2402 12.9922 12.9924 12.24 13.9202 12.24ZM33.5202 18.96H34.0802C35.0081 18.96 35.7602 19.7122 35.7602 20.64V34.08C35.7602 35.0078 35.0081 35.76 34.0802 35.76H20.6402C19.7124 35.76 18.9602 35.0078 18.9602 34.08V33.52H30.7202C32.2666 33.52 33.5202 32.2664 33.5202 30.72V18.96Z" fill="#1565D8"/>
<path opacity="0.3" fill-rule="evenodd" clip-rule="evenodd" d="M30.1596 15.6001H30.7196C31.6474 15.6001 32.3996 16.3523 32.3996 17.2801V30.7201C32.3996 31.6479 31.6474 32.4001 30.7196 32.4001H17.2796C16.3518 32.4001 15.5996 31.6479 15.5996 30.7201V30.1601H27.3596C28.906 30.1601 30.1596 28.9065 30.1596 27.3601V15.6001Z" fill="#1565D8"/>
</svg>
