<svg width="49" height="49" viewBox="0 0 49 49" fill="none" xmlns="http://www.w3.org/2000/svg">
<g opacity="0.2">
<rect width="48" height="48" rx="16" stroke="#1565D8"/>
</g>
<path fill-rule="evenodd" clip-rule="evenodd" d="M13.9202 12.24H20.6402C21.5681 12.24 22.3202 12.9922 22.3202 13.92V20.64C22.3202 21.5678 21.5681 22.32 20.6402 22.32H13.9202C12.9924 22.32 12.2402 21.5678 12.2402 20.64V13.92C12.2402 12.9922 12.9924 12.24 13.9202 12.24ZM27.3602 25.68H34.0802C35.0081 25.68 35.7602 26.4322 35.7602 27.36V34.08C35.7602 35.0078 35.0081 35.76 34.0802 35.76H27.3602C26.4324 35.76 25.6802 35.0078 25.6802 34.08V27.36C25.6802 26.4322 26.4324 25.68 27.3602 25.68Z" fill="#1565D8"/>
<path opacity="0.3" fill-rule="evenodd" clip-rule="evenodd" d="M27.3602 12.24H34.0802C35.0081 12.24 35.7602 12.9922 35.7602 13.92V20.64C35.7602 21.5678 35.0081 22.32 34.0802 22.32H27.3602C26.4324 22.32 25.6802 21.5678 25.6802 20.64V13.92C25.6802 12.9922 26.4324 12.24 27.3602 12.24ZM13.9202 25.68H20.6402C21.5681 25.68 22.3202 26.4322 22.3202 27.36V34.08C22.3202 35.0078 21.5681 35.76 20.6402 35.76H13.9202C12.9924 35.76 12.2402 35.0078 12.2402 34.08V27.36C12.2402 26.4322 12.9924 25.68 13.9202 25.68Z" fill="#1565D8"/>
</svg>
