<svg width="49" height="49" viewBox="0 0 49 49" fill="none" xmlns="http://www.w3.org/2000/svg">
<g opacity="0.2">
<rect width="48" height="48" rx="16" stroke="#1565D8"/>
</g>
<path opacity="0.3" fill-rule="evenodd" clip-rule="evenodd" d="M23.5522 29.04C22.2532 29.04 21.2002 30.0931 21.2002 31.392V34.976C21.2002 35.409 21.5512 35.76 21.9842 35.76H26.0162C26.4492 35.76 26.8002 35.409 26.8002 34.976V31.392C26.8002 30.0931 25.7472 29.04 24.4482 29.04H23.5522Z" fill="#1565D8"/>
<path fill-rule="evenodd" clip-rule="evenodd" d="M27.9202 35.0682V31.3788C27.9202 29.4686 26.174 27.92 24.2638 27.92H23.7367C21.8265 27.92 20.0802 29.4686 20.0802 31.3788V35.0682C20.0802 35.3108 20.1218 35.5436 20.1983 35.76H18.4661C16.5559 35.76 15.0073 34.2114 15.0073 32.3012V21.7198L13.3875 23.1371C13.1 23.3886 12.663 23.3595 12.4114 23.072C12.1598 22.7845 12.189 22.3474 12.4765 22.0959L23.5447 12.4111C23.8055 12.1829 24.195 12.1829 24.4558 12.4111L35.524 22.0959C35.8115 22.3474 35.8406 22.7845 35.5891 23.072C35.3375 23.3595 34.9005 23.3886 34.6129 23.1371L32.9932 21.7198V32.3012C32.9932 34.2114 31.4446 35.76 29.5343 35.76H27.8021C27.8786 35.5436 27.9202 35.3108 27.9202 35.0682Z" fill="#1565D8"/>
</svg>
