<svg width="192" height="192" viewBox="0 0 192 192" fill="none" xmlns="http://www.w3.org/2000/svg">
<g id="Icon3">
<g id="Border" opacity="0.06">
<rect id="Shape" width="192" height="192" rx="16" fill="#1565D8"/>
</g>
<g id="Icon_Protection">
<path id="Path" fill-rule="evenodd" clip-rule="evenodd" d="M140.015 61.3425L96.8146 45.7425C96.2878 45.5523 95.7111 45.5523 95.1843 45.7425L51.9843 61.3425C51.0332 61.686 50.3994 62.5887 50.3994 63.5999V95.9999C50.3994 121.443 65.5944 138.326 95.3774 146.318C95.7902 146.429 96.2252 146.427 96.6372 146.314C126.41 138.106 141.599 121.229 141.599 95.9999V63.5999C141.599 62.5887 140.966 61.686 140.015 61.3425ZM79.4307 91.8017C80.3909 90.888 81.9101 90.9257 82.8238 91.886L92.5326 102.089L112.921 79.9731C113.819 78.9986 115.337 78.9369 116.312 79.8353C117.286 80.7337 117.348 82.252 116.45 83.2266L94.3249 107.227C93.3847 108.247 91.778 108.259 90.8217 107.254L79.3465 95.1948C78.4328 94.2346 78.4705 92.7154 79.4307 91.8017Z" fill="#1565D8"/>
</g>
</g>
</svg>
