<svg width="48" height="48" viewBox="0 0 48 48" fill="none" xmlns="http://www.w3.org/2000/svg">
<g opacity="0.06">
<rect width="48" height="48" rx="8" fill="#1565D8"/>
</g>
<path fill-rule="evenodd" clip-rule="evenodd" d="M12.4796 10.5601H20.1596C21.22 10.5601 22.0796 11.4197 22.0796 12.4801V20.1601C22.0796 21.2204 21.22 22.0801 20.1596 22.0801H12.4796C11.4192 22.0801 10.5596 21.2204 10.5596 20.1601V12.4801C10.5596 11.4197 11.4192 10.5601 12.4796 10.5601ZM27.8396 25.9201H35.5196C36.58 25.9201 37.4396 26.7797 37.4396 27.8401V35.5201C37.4396 36.5804 36.58 37.4401 35.5196 37.4401H27.8396C26.7792 37.4401 25.9196 36.5804 25.9196 35.5201V27.8401C25.9196 26.7797 26.7792 25.9201 27.8396 25.9201Z" fill="#1565D8"/>
<path opacity="0.3" fill-rule="evenodd" clip-rule="evenodd" d="M27.8396 10.5601H35.5196C36.58 10.5601 37.4396 11.4197 37.4396 12.4801V20.1601C37.4396 21.2204 36.58 22.0801 35.5196 22.0801H27.8396C26.7792 22.0801 25.9196 21.2204 25.9196 20.1601V12.4801C25.9196 11.4197 26.7792 10.5601 27.8396 10.5601ZM12.4796 25.9201H20.1596C21.22 25.9201 22.0796 26.7797 22.0796 27.8401V35.5201C22.0796 36.5804 21.22 37.4401 20.1596 37.4401H12.4796C11.4192 37.4401 10.5596 36.5804 10.5596 35.5201V27.8401C10.5596 26.7797 11.4192 25.9201 12.4796 25.9201Z" fill="#1565D8"/>
</svg>
