<svg width="49" height="49" viewBox="0 0 49 49" fill="none" xmlns="http://www.w3.org/2000/svg">
<g opacity="0.2">
<rect width="48" height="48" rx="16" stroke="#1565D8"/>
</g>
<path fill-rule="evenodd" clip-rule="evenodd" d="M18.0449 20.9915C19.5168 18.8998 20.4356 16.4996 20.8042 13.7824C20.8393 13.5235 21.0225 13.3083 21.274 13.2305C23.8088 12.446 25.2499 13.6926 25.2261 16.535C25.2215 17.0867 25.196 17.5771 25.1418 18.3272C25.0207 20.0025 25.0304 20.4597 25.2179 20.7674C25.3983 21.0631 25.9836 21.1641 27.368 20.9012C27.8048 20.8183 28.2431 20.7243 28.7285 20.6114C28.9427 20.5615 30.486 20.1849 30.8805 20.0998C31.633 19.9373 32.173 19.8685 32.6478 19.8976C33.934 19.9765 34.6166 20.8047 34.7345 22.3913C34.9422 25.1855 34.3004 30.798 33.6602 32.8653C33.0059 34.9778 31.8649 35.7752 29.126 35.8233C27.3651 35.8543 24.6568 35.8543 20.9885 35.8232C20.052 35.8015 19.2034 35.6201 18.4485 35.2811C18.6604 34.8424 18.7791 34.3509 18.7791 33.832V23.08C18.7791 22.2907 18.5045 21.5649 18.0449 20.9915Z" fill="#1565D8"/>
<path opacity="0.3" fill-rule="evenodd" clip-rule="evenodd" d="M14.0337 21.064C12.9105 21.064 12 21.9666 12 23.08V33.832C12 34.9454 12.9105 35.848 14.0337 35.848H15.3895C16.5126 35.848 17.4232 34.9454 17.4232 33.832V23.08C17.4232 21.9666 16.5126 21.064 15.3895 21.064H14.0337Z" fill="#1565D8"/>
</svg>
