<svg width="48" height="48" viewBox="0 0 48 48" fill="none" xmlns="http://www.w3.org/2000/svg">
<g opacity="0.06">
<rect width="48" height="48" rx="8" fill="#1565D8"/>
</g>
<path d="M14.7189 18.8329H17.844C18.3675 18.8329 18.792 19.2421 18.792 19.7468C18.792 20.2515 18.3675 20.6607 17.844 20.6607H12.7879C12.2643 20.6607 11.8398 20.2515 11.8398 19.7468V14.8728C11.8398 14.3681 12.2643 13.9589 12.7879 13.9589C13.3114 13.9589 13.7359 14.3681 13.7359 14.8728V16.9041C16.8176 12.657 22.5446 10.7305 27.8449 12.4898C32.8313 14.1449 36.1617 18.668 36.1598 23.7265C36.1597 24.2313 35.7351 24.6403 35.2115 24.6401C34.6879 24.6399 34.2636 24.2306 34.2638 23.7259C34.2654 19.4461 31.447 15.6185 27.2276 14.218C22.3916 12.6128 17.1349 14.6343 14.7189 18.8329Z" fill="#B4CCEF"/>
<path fill-rule="evenodd" clip-rule="evenodd" d="M33.2491 29.1532H30.1647C29.6419 29.1532 29.2181 28.7432 29.2181 28.2375C29.2181 27.7318 29.6419 27.3218 30.1647 27.3218H35.2132C35.736 27.3218 36.1598 27.7318 36.1598 28.2375V33.1211C36.1598 33.6269 35.736 34.0368 35.2132 34.0368C34.6904 34.0368 34.2666 33.6269 34.2666 33.1211V31.0359C31.1964 35.3295 25.4515 37.2776 20.1424 35.5092C15.1731 33.8541 11.85 29.3362 11.8398 24.2776C11.8388 23.7718 12.2618 23.3611 12.7846 23.3601C13.3074 23.3591 13.732 23.7683 13.7331 24.274C13.7416 28.5539 16.5539 32.3771 20.7588 33.7777C25.5839 35.3848 30.8352 33.3637 33.2491 29.1532Z" fill="#1565D8"/>
</svg>
