<svg width="49" height="49" viewBox="0 0 49 49" fill="none" xmlns="http://www.w3.org/2000/svg">
<g opacity="0.2">
<rect width="48" height="48" rx="16" stroke="#1565D8"/>
</g>
<path fill-rule="evenodd" clip-rule="evenodd" d="M34.2706 15.9133L24.1906 12.2733C24.0676 12.2289 23.9331 12.2289 23.8102 12.2733L13.7302 15.9133C13.5082 15.9934 13.3604 16.204 13.3604 16.44V24C13.3604 29.9366 16.9059 33.8761 23.8552 35.7409C23.9515 35.7667 24.053 35.7664 24.1492 35.7399C31.0962 33.8248 34.6404 29.8869 34.6404 24V16.44C34.6404 16.204 34.4925 15.9934 34.2706 15.9133ZM20.1343 23.0204C20.3584 22.8072 20.7128 22.816 20.926 23.0401L23.1914 25.4208L27.9486 20.2604C28.1582 20.033 28.5125 20.0186 28.7399 20.2283C28.9673 20.4379 28.9817 20.7922 28.7721 21.0196L23.6096 26.6196C23.3902 26.8576 23.0154 26.8605 22.7922 26.626L20.1147 23.8121C19.9015 23.5881 19.9103 23.2336 20.1343 23.0204Z" fill="#1565D8"/>
</svg>
