<svg width="190" height="32" viewBox="0 0 190 32" fill="none" xmlns="http://www.w3.org/2000/svg">
<path d="M59.7008 3.19998C59.263 1.7655 57.7306 0.993084 56.3078 1.43446C54.8849 1.87584 54.1187 3.42067 54.5565 4.85515L61.5615 26.5931C62.054 27.9172 63.4769 28.6896 64.8451 28.3034C66.268 27.862 67.1436 26.3724 66.7058 24.9379C66.7058 24.8827 59.7008 3.19998 59.7008 3.19998Z" fill="#8C98A4"/>
<path d="M48.8648 6.78641C48.427 5.35192 46.8947 4.57951 45.4718 5.02089C44.0489 5.46227 43.2828 7.0071 43.7206 8.44158L50.7255 30.1795C51.2181 31.5036 52.641 32.2761 54.0091 31.8899C55.432 31.4485 56.3076 29.9588 55.8698 28.5243C55.8698 28.4692 48.8648 6.78641 48.8648 6.78641Z" fill="#8C98A4"/>
<path d="M68.5667 21.2413C69.9896 20.7999 70.7557 19.2551 70.3179 17.8206C69.8801 16.3861 68.3478 15.6137 66.9249 16.0551L45.308 23.062C43.9945 23.5585 43.2284 24.993 43.6115 26.3723C44.0493 27.8068 45.5269 28.6896 46.9498 28.2482C47.0592 28.2482 68.5667 21.2413 68.5667 21.2413Z" fill="#8C98A4"/>
<path d="M49.7961 27.3653C51.219 26.9239 53.025 26.317 54.9404 25.655C54.5026 24.2205 53.9006 22.3998 53.2439 20.4688L48.0996 22.1791L49.7961 27.3653Z" fill="#8C98A4"/>
<path d="M60.6868 23.7789C62.6569 23.1168 64.4629 22.5651 65.831 22.0685C65.3932 20.634 64.7912 18.8134 64.1345 16.8823L58.9902 18.5927L60.6868 23.7789Z" fill="#8C98A4"/>
<path d="M65.01 10.2618C66.4329 9.8204 67.1991 8.27558 66.7612 6.84109C66.3234 5.40661 64.7911 4.6342 63.3682 5.07558L41.806 12.1376C40.4926 12.6342 39.7264 14.0687 40.1095 15.448C40.5473 16.9376 42.0249 17.8204 43.4478 17.3239C43.5025 17.3239 65.01 10.2618 65.01 10.2618Z" fill="#8C98A4"/>
<path d="M46.2932 16.3863C47.7161 15.9449 49.5221 15.338 51.4375 14.676C50.7808 12.6897 50.2335 10.8691 49.741 9.48975L44.5967 11.2001L46.2932 16.3863Z" fill="#8C98A4"/>
<path d="M57.1291 12.855C59.0993 12.193 60.9053 11.6413 62.2734 11.1447C61.6167 9.1585 61.0694 7.33781 60.5769 5.9585L55.4326 7.66884L57.1291 12.855Z" fill="#8C98A4"/>
<path d="M90.4032 8.9379C91.3335 9.37928 91.443 9.65514 90.6768 11.0896C89.9107 12.5793 89.7465 12.6345 88.7614 12.2482C87.5574 11.7517 86.0798 11.3655 85.0947 11.3655C83.5077 11.3655 82.4679 11.9172 82.4679 12.8C82.4679 15.6689 91.6072 14.1241 91.6072 20.3034C91.6072 23.3931 88.9803 25.4345 85.04 25.4345C82.9604 25.4345 80.3883 24.7172 78.637 23.8345C77.7614 23.3931 77.7067 23.1172 78.4728 21.6276C79.1296 20.3586 79.3485 20.1931 80.2788 20.5793C81.8112 21.2413 83.6718 21.7379 84.9853 21.7379C86.4629 21.7379 87.3932 21.131 87.3932 20.2482C87.3932 17.4345 78.0898 18.7586 78.0898 12.8C78.0898 9.65514 80.7166 7.50342 84.6022 7.50342C86.4629 7.66894 88.8161 8.22066 90.4032 8.9379Z" fill="#8C98A4"/>
<path d="M97.791 1.65517V24.6069C97.791 24.9379 97.408 25.3241 96.9154 25.3241H94.5075C93.9602 25.3241 93.6318 24.9379 93.6318 24.6069V1.65517C93.6318 0.496553 93.9602 0.441381 95.7114 0.441381C97.6816 0.386208 97.791 0.551726 97.791 1.65517Z" fill="#8C98A4"/>
<path fill-rule="evenodd" clip-rule="evenodd" d="M114.756 24.3862V14.5103C114.756 10.2069 111.855 7.66895 107.258 7.66895C105.179 7.66895 102.88 8.33101 101.238 9.43446C100.363 9.98619 100.363 10.262 101.238 11.6414C102.169 13.0207 102.333 13.0758 103.209 12.5793C104.303 11.9172 105.671 11.4758 106.82 11.4758C109.228 11.4758 110.651 12.5793 110.651 14.4V15.5586C109.502 15.062 108.079 14.7862 106.547 14.7862C102.442 14.7862 99.7607 16.9931 99.7607 20.3034C99.7607 23.3931 102.169 25.4896 105.726 25.4896C107.587 25.4896 109.447 24.7172 110.706 23.2827L110.651 24.331C110.597 24.8827 110.98 25.2689 111.527 25.2689H113.88C114.373 25.2689 114.756 24.9379 114.756 24.3862ZM106.218 22.1793C104.741 22.1793 103.756 21.4069 103.756 20.2483C103.756 18.8138 105.233 17.7103 107.422 17.7103C108.462 17.7103 109.666 17.8758 110.597 18.262V19.8069C109.666 21.2965 108.024 22.1793 106.218 22.1793Z" fill="#8C98A4"/>
<path d="M131.01 8.99298C131.886 9.48953 131.886 9.76539 130.955 11.255C130.08 12.6344 129.916 12.7447 128.931 12.2482C128.219 11.8619 127.015 11.5309 126.085 11.5309C123.075 11.5309 121.105 13.5171 121.105 16.5516C121.105 19.6964 123.075 21.793 126.085 21.793C127.125 21.793 128.438 21.4068 129.259 20.9102C130.135 20.4137 130.299 20.4137 131.229 21.793C132.05 23.0619 132.05 23.3378 131.284 23.8895C129.97 24.8275 127.836 25.5447 125.975 25.5447C120.448 25.5447 116.727 21.9585 116.727 16.6068C116.727 11.255 120.448 7.72401 126.03 7.72401C127.781 7.66884 129.751 8.22057 131.01 8.99298Z" fill="#8C98A4"/>
<path d="M149.124 23.1173C149.836 24 149.562 24.3311 147.811 24.938C146.059 25.6 145.786 25.5449 145.184 24.7173L140.204 18.0414L137.96 20.1931V24.5518C137.96 24.8828 137.577 25.269 137.084 25.269H134.676C134.129 25.269 133.801 24.8828 133.801 24.5518V1.6552C133.801 0.496579 134.129 0.441406 135.88 0.441406C137.905 0.441406 137.96 0.606924 137.96 1.6552V14.6759L144.746 8.11037C145.512 7.39313 145.895 7.4483 147.263 8.33106C148.741 9.26899 148.851 9.54485 148.139 10.2621L143.104 15.2276L149.124 23.1173Z" fill="#8C98A4"/>
</svg>
