<svg width="190" height="33" viewBox="0 0 190 33" fill="none" xmlns="http://www.w3.org/2000/svg">
<path d="M70.6271 12.1257H59.4354V15.4257H67.3939C66.996 20.0757 63.1162 22.1257 59.4851 22.1257C54.8095 22.1257 50.7307 18.4257 50.7307 13.2757C50.7307 8.22571 54.6105 4.32571 59.4851 4.32571C63.2654 4.32571 65.454 6.72571 65.454 6.72571L67.7421 4.32571C67.7421 4.32571 64.7576 1.02571 59.3359 1.02571C52.4219 0.975709 47.0996 6.82571 47.0996 13.1757C47.0996 19.3757 52.1234 25.4257 59.5348 25.4257C66.0509 25.4257 70.826 20.9757 70.826 14.3257C70.826 12.9257 70.6271 12.1257 70.6271 12.1257Z" fill="#8C98A4"/>
<path fill-rule="evenodd" clip-rule="evenodd" d="M71.8701 17.4758C71.8701 13.2758 75.153 9.67578 79.7292 9.67578C83.5095 9.67578 87.5883 12.3758 87.638 17.5758C87.638 22.1758 84.1561 25.4258 79.8287 25.4258C75.0535 25.4258 71.8701 21.7758 71.8701 17.4758ZM84.1561 17.5758C84.1561 14.6758 82.0173 12.8258 79.7789 12.8258C77.2421 12.8258 75.3022 14.8258 75.352 17.5258C75.352 20.3258 77.2919 22.3258 79.7789 22.3258C82.067 22.3258 84.1561 20.4758 84.1561 17.5758Z" fill="#8C98A4"/>
<path fill-rule="evenodd" clip-rule="evenodd" d="M88.9814 17.4758C88.9814 13.2758 92.2643 9.67578 96.8405 9.67578C100.621 9.67578 104.7 12.3758 104.749 17.5758C104.749 22.1758 101.267 25.4258 96.94 25.4258C92.1649 25.4258 88.9814 21.7758 88.9814 17.4758ZM101.267 17.5758C101.267 14.6758 99.1286 12.8258 96.8903 12.8258C94.3535 12.8258 92.4136 14.8258 92.4633 17.5258C92.4633 20.3258 94.4032 22.3258 96.8903 22.3258C99.1783 22.3258 101.267 20.4758 101.267 17.5758Z" fill="#8C98A4"/>
<path fill-rule="evenodd" clip-rule="evenodd" d="M106.092 17.5756C106.092 13.4256 109.375 9.72559 113.603 9.72559C115.443 9.72559 116.836 10.4256 117.731 11.5256V10.1756H121.014V24.3256C121.014 29.8756 117.831 32.5256 113.652 32.5256C109.822 32.5256 107.684 30.1756 106.639 27.9256L109.673 26.6756C110.121 27.6756 111.315 29.4756 113.702 29.4756C116.189 29.4756 117.831 27.8256 117.831 25.1256V23.5756C116.886 24.6256 115.742 25.4756 113.503 25.4756C109.922 25.4756 106.092 22.2756 106.092 17.5756ZM118.079 17.6256C118.079 14.6256 115.941 12.8256 113.901 12.8256C111.713 12.8256 109.574 14.5756 109.524 17.6756C109.524 20.5256 111.613 22.3756 113.851 22.3756C115.99 22.3756 118.079 20.7256 118.079 17.6256Z" fill="#8C98A4"/>
<path fill-rule="evenodd" clip-rule="evenodd" d="M128.426 17.5258C128.426 12.8258 131.758 9.67578 135.738 9.67578C138.822 9.67578 141.159 11.7758 142.204 14.1758L142.751 15.4758L132.256 19.8758C132.902 21.0758 133.897 22.2758 136.086 22.2758C138.026 22.2758 139.22 21.2258 139.916 20.1258L142.652 21.9758C141.458 23.5758 139.369 25.4258 136.086 25.4258C132.156 25.4258 128.426 22.4758 128.426 17.5258ZM138.772 14.4258C138.274 13.4758 137.28 12.7258 135.837 12.7258C133.599 12.7258 131.41 15.0758 131.808 17.3758L138.772 14.4258Z" fill="#8C98A4"/>
<path d="M123.452 24.9759H126.884V1.77588H123.452V24.9759Z" fill="#8C98A4"/>
</svg>
