<svg width="190" height="32" viewBox="0 0 190 32" fill="none" xmlns="http://www.w3.org/2000/svg">
<path fill-rule="evenodd" clip-rule="evenodd" d="M61.0156 5.83962C61.0156 6.83019 60.1516 7.67925 59.1436 7.67925C58.1356 7.67925 57.2716 6.83019 57.2716 5.83962C57.2716 4.84906 58.1356 4 59.1436 4C60.1516 4 61.0156 4.84906 61.0156 5.83962ZM59.1436 9.18868C58.0396 9.18868 57.1756 10.0377 57.1756 11.1226C57.1756 12.2075 58.0396 13.0566 59.1436 13.0566C60.2476 13.0566 61.1116 12.2075 61.1116 11.1226C61.1116 9.99057 60.2476 9.18868 59.1436 9.18868ZM57.1276 16.3113C57.1276 15.2264 58.0396 14.3302 59.1436 14.3302C60.2476 14.3302 61.2076 15.2264 61.1596 16.3113C61.1596 17.3962 60.2476 18.2925 59.1436 18.2925C58.0396 18.2925 57.1276 17.3962 57.1276 16.3113ZM59.1436 19.566C58.0396 19.566 57.1756 20.4151 57.1756 21.5C57.1756 22.5849 58.0396 23.434 59.1436 23.434C60.2476 23.434 61.1116 22.5849 61.1116 21.5C61.1116 20.4623 60.2476 19.566 59.1436 19.566ZM57.2716 26.7358C57.2716 25.7453 58.1356 24.8962 59.1436 24.8962C60.1996 24.8962 61.0156 25.7453 61.0156 26.7358C61.0156 27.7264 60.1516 28.5755 59.1436 28.5755C58.1356 28.5755 57.2716 27.7264 57.2716 26.7358ZM64.3276 8.95283C63.1276 8.95283 62.1196 9.9434 62.1196 11.1226C62.1196 12.3019 63.1276 13.2925 64.3276 13.2925C65.5276 13.2925 66.5356 12.3019 66.5356 11.1226C66.5356 9.9434 65.5276 8.95283 64.3276 8.95283ZM62.0236 16.3585C62.0236 15.0849 63.0796 14.0943 64.3276 14.0943C65.5756 14.0943 66.6316 15.0849 66.6316 16.3585C66.6316 17.6321 65.5756 18.6226 64.3276 18.6226C63.0316 18.6226 62.0236 17.5849 62.0236 16.3585ZM64.3276 19.3302C63.1276 19.3302 62.1196 20.3208 62.1196 21.5C62.1196 22.6792 63.1276 23.6698 64.3276 23.6698C65.5276 23.6698 66.5356 22.6792 66.5356 21.5C66.5356 20.3208 65.5276 19.3302 64.3276 19.3302ZM67.1116 16.3113C67.1116 14.8962 68.3116 13.8113 69.6556 13.8113C70.9996 13.8113 72.1036 14.8962 72.1996 16.3113C72.1996 17.7264 71.0956 18.8113 69.6556 18.8113C68.2156 18.8113 67.1116 17.6321 67.1116 16.3113ZM53.9116 9.42453C52.9996 9.42453 52.2316 10.1792 52.2316 11.0755C52.2316 11.9717 52.9996 12.7264 53.9116 12.7264C54.8236 12.7264 55.5916 11.9717 55.5916 11.0755C55.5916 10.1792 54.8716 9.42453 53.9116 9.42453ZM52.1356 16.3113C52.1356 15.3208 52.9036 14.566 53.9116 14.566C54.9196 14.566 55.6876 15.3208 55.6876 16.3113C55.6876 17.3019 54.9196 18.0566 53.9116 18.0566C52.9036 18.0566 52.1356 17.3019 52.1356 16.3113ZM53.9116 19.8019C52.9996 19.8019 52.2316 20.5566 52.2316 21.4528C52.2316 22.3491 52.9996 23.1038 53.9116 23.1038C54.8236 23.1038 55.5916 22.3491 55.5916 21.4528C55.5916 20.5566 54.8716 19.8019 53.9116 19.8019ZM47.1436 16.3585C47.1436 15.5094 47.8156 14.8491 48.6796 14.8491C49.5436 14.8491 50.2156 15.5094 50.2156 16.3585C50.2156 17.2075 49.5436 17.8679 48.6796 17.8679C47.8156 17.8679 47.1436 17.2075 47.1436 16.3585Z" fill="#8C98A4"/>
<path d="M91.3038 13.1035C91.1118 13.1035 90.9678 13.2922 90.9678 13.4337V26.4997C90.9678 26.6884 91.1598 26.8299 91.3038 26.8299H92.8878C93.0798 26.8299 93.2238 26.6413 93.2238 26.4997V13.4337C93.2238 13.245 93.0318 13.1035 92.8878 13.1035H91.3038Z" fill="#8C98A4"/>
<path d="M92.1678 7.58496C91.3038 7.58496 90.6318 8.24534 90.6318 9.09439C90.6318 9.94345 91.3038 10.6038 92.1678 10.6038C93.0318 10.6038 93.7038 9.94345 93.7038 9.09439C93.7038 8.24534 92.9838 7.58496 92.1678 7.58496Z" fill="#8C98A4"/>
<path d="M125.384 13.1035C125.192 13.1035 125.048 13.2922 125.048 13.4337V26.4997C125.048 26.6884 125.24 26.8299 125.384 26.8299H126.968C127.16 26.8299 127.304 26.6413 127.304 26.4997V13.4337C127.304 13.245 127.112 13.1035 126.968 13.1035H125.384Z" fill="#8C98A4"/>
<path d="M126.152 7.58496C125.288 7.58496 124.616 8.24534 124.616 9.09439C124.616 9.94345 125.288 10.6038 126.152 10.6038C127.016 10.6038 127.688 9.94345 127.688 9.09439C127.688 8.24534 127.016 7.58496 126.152 7.58496Z" fill="#8C98A4"/>
<path fill-rule="evenodd" clip-rule="evenodd" d="M142.359 25.3995C142.349 25.4454 142.325 25.5009 142.266 25.5565C142.266 25.6508 142.166 25.7451 141.966 25.698L142.043 25.7863C142.033 25.7901 142.024 25.7923 142.016 25.7923H141.866L142.216 26.2168H142.416L142.043 25.7863C142.059 25.7799 142.079 25.7691 142.1 25.7572C142.149 25.7303 142.207 25.698 142.266 25.698C142.366 25.698 142.366 25.6036 142.366 25.5093C142.366 25.4705 142.366 25.4317 142.359 25.3995ZM141.666 25.7923V25.6508V25.2263H142.016C142.116 25.2263 142.216 25.2263 142.266 25.3206C142.325 25.3206 142.349 25.3533 142.359 25.3995C142.366 25.3674 142.366 25.34 142.366 25.3206V25.2263C142.366 25.2263 142.366 25.1319 142.266 25.1319C142.266 25.1319 142.166 25.0376 142.066 25.0376H141.866H141.416V26.2168H141.616V25.7923H141.666Z" fill="#8C98A4"/>
<path fill-rule="evenodd" clip-rule="evenodd" d="M140.792 25.6508C140.792 25.0848 141.32 24.5659 141.896 24.5659C142.52 24.5659 143 25.0376 143 25.6508C143 26.2169 142.472 26.7357 141.896 26.7357C141.32 26.7357 140.792 26.2169 140.792 25.6508ZM140.888 25.6508C140.888 26.2169 141.32 26.6414 141.896 26.6414C142.424 26.6414 142.904 26.2169 142.904 25.6508C142.904 25.0848 142.472 24.6603 141.896 24.6603C141.32 24.6603 140.888 25.0848 140.888 25.6508Z" fill="#8C98A4"/>
<path d="M104.504 15.2264C104.696 15.2264 104.84 15.0377 104.84 14.8962V13.3396C104.84 13.1509 104.648 13.0094 104.504 13.0094H101.096V8.00939C101.096 7.82071 100.904 7.6792 100.76 7.6792H99.1762C98.9842 7.6792 98.8402 7.86788 98.8402 8.00939V13.0094H97.1602C96.9682 13.0094 96.8242 13.1981 96.8242 13.3396V14.8962C96.8242 15.0849 97.0162 15.2264 97.1602 15.2264H98.8402V22.7735C98.8402 25.0849 100.424 26.5943 102.728 26.5943H104.408C104.6 26.5943 104.744 26.4056 104.744 26.2641V24.7075C104.744 24.5188 104.552 24.3773 104.408 24.3773H102.968C101.864 24.3773 101.096 23.6226 101.096 22.4433V15.1792H104.504V15.2264Z" fill="#8C98A4"/>
<path d="M138.201 15.2264C138.393 15.2264 138.537 15.0377 138.537 14.8962V13.3396C138.537 13.1509 138.345 13.0094 138.201 13.0094H134.793V8.00939C134.793 7.82071 134.601 7.6792 134.457 7.6792H132.873C132.681 7.6792 132.537 7.86788 132.537 8.00939V13.0094H130.857C130.665 13.0094 130.521 13.1981 130.521 13.3396V14.8962C130.521 15.0849 130.713 15.2264 130.857 15.2264H132.537V22.7735C132.537 25.0849 134.121 26.5943 136.425 26.5943H138.105C138.297 26.5943 138.441 26.4056 138.441 26.2641V24.7075C138.441 24.5188 138.249 24.3773 138.105 24.3773H136.569C135.465 24.3773 134.697 23.6226 134.697 22.4433V15.1792H138.153L138.201 15.2264Z" fill="#8C98A4"/>
<path d="M81.224 15.2263V26.3584C81.224 26.5471 81.416 26.6886 81.56 26.6886H83.144C83.336 26.6886 83.48 26.4999 83.48 26.3584V15.2263H87.224C87.416 15.2263 87.56 15.0377 87.56 14.8962V13.3395C87.56 13.1509 87.368 13.0094 87.224 13.0094H83.48V10.0848C83.48 8.90559 84.344 8.1037 85.352 8.1037H87.224C87.416 8.1037 87.56 7.91502 87.56 7.77351V6.21691C87.56 6.02823 87.368 5.88672 87.224 5.88672H85.448C83.096 5.88672 81.224 7.82068 81.224 10.0377V13.0094H79.544C79.352 13.0094 79.208 13.198 79.208 13.3395V14.8962C79.208 15.0848 79.4 15.2263 79.544 15.2263H81.224Z" fill="#8C98A4"/>
<path fill-rule="evenodd" clip-rule="evenodd" d="M115.112 12.5849C116.984 12.5849 118.76 13.3397 120.008 14.6604C121.256 15.9812 121.928 17.8208 121.928 19.8491C121.928 24.8963 118.424 27.1604 115.064 27.1604C111.656 27.1604 108.2 24.9434 108.2 19.8491V6.12267C108.2 5.98116 108.344 5.79248 108.536 5.79248H110.12C110.264 5.79248 110.456 5.93399 110.456 6.12267V14.4246C111.56 13.3397 113.336 12.5849 115.112 12.5849ZM110.408 19.8963C110.408 22.3963 111.656 25.0378 115.064 25.0378C118.472 25.0378 119.672 22.3963 119.72 19.8963C119.72 16.8774 117.848 14.8019 115.064 14.8019C112.28 14.8019 110.408 16.8302 110.408 19.8963Z" fill="#8C98A4"/>
</svg>
