<svg width="190" height="32" viewBox="0 0 190 32" fill="none" xmlns="http://www.w3.org/2000/svg">
<path fill-rule="evenodd" clip-rule="evenodd" d="M57.7598 27.3496H57.7598L57.7597 27.3496L57.7595 27.3496C57.2071 27.4062 56.6462 27.4637 56.0719 27.5344L51.4639 14.2035V28.1017C50.0239 28.2435 48.7279 28.4326 47.3359 28.669V3.18896H51.1759L56.4079 17.6544V3.18896H60.4879V27.0144C59.5864 27.1624 58.6849 27.2548 57.7598 27.3496ZM71.2916 12.5L71.2918 12.5L71.2919 12.5C72.2456 12.4769 73.1771 12.4544 73.8799 12.4544V16.4253C72.1039 16.4253 69.9919 16.4253 68.4559 16.5199V22.429C69.2038 22.3839 69.9566 22.334 70.7127 22.2839L70.7128 22.2839L70.7129 22.2839L70.713 22.2839H70.713H70.713H70.713H70.7131H70.7131H70.7131H70.7131C72.3346 22.1764 73.9713 22.068 75.6079 22.0035V25.8326L64.4239 26.6835V3.18896H75.6079V7.15987H68.4559V12.549C69.2667 12.549 70.2913 12.5242 71.2915 12.5L71.2915 12.5H71.2916H71.2916ZM86.4079 7.20715H90.5839C90.5839 7.20715 90.5839 3.18896 90.6319 3.18896H78.1999V7.20715H82.3759V25.549C83.6719 25.5017 85.0639 25.5017 86.4079 25.5017V7.20715ZM97.1599 12.2653H102.68V16.2362H97.1599V25.2653H93.1759V3.18896H104.456V7.15987H97.1599V12.2653ZM115.218 21.9572C113.83 21.8768 112.431 21.7958 111.032 21.7671V3.18896H107V25.5017C110.696 25.5962 114.296 25.7853 117.896 26.0217V22.0981C117.01 22.0609 116.116 22.0092 115.218 21.9572ZM122.666 26.3925L122.666 26.3925C123.531 26.444 124.41 26.4963 125.288 26.589V3.18896H121.304V26.3053C121.753 26.3381 122.208 26.3652 122.666 26.3925ZM137.816 15.2908L142.952 3.18896H138.488L135.656 9.85442L133.016 3.18896H128.696L133.4 15.149L128.216 26.7781C128.792 26.8537 129.368 26.9142 129.944 26.9747C130.808 27.0655 131.672 27.1562 132.536 27.2981L135.512 20.5381L138.392 27.9126C138.93 27.9954 139.462 28.084 139.992 28.1722C140.976 28.336 141.954 28.4988 142.952 28.6217L137.816 15.2908Z" fill="#8C98A4"/>
</svg>
